<svg xmlns="http://www.w3.org/2000/svg" viewBox="0 0 116.49 167.97"><defs><style>.cls-1,.cls-4{font-size:12.93px;font-family:OracleSans-ExtraBold, Oracle Sans;font-weight:800;}.cls-1,.cls-5{fill:#07c6e5;}.cls-2{letter-spacing:-0.01em;}.cls-3{letter-spacing:-0.07em;}.cls-4,.cls-6{fill:#fff;}</style></defs><title>Asset 3</title><g id="Layer_2" data-name="Layer 2"><g id="Label_Template" data-name="Label Template"><text class="cls-1" transform="translate(17.23 68.95)">B<tspan class="cls-2" x="8.58" y="0">L</tspan><tspan x="15.9" y="0">OC</tspan><tspan class="cls-3" x="34.28" y="0">K</tspan><tspan x="42.76" y="0">CHAIN</tspan></text><text class="cls-4" transform="translate(16.11 68.03)">B<tspan class="cls-2" x="8.58" y="0">L</tspan><tspan x="15.9" y="0">OC</tspan><tspan class="cls-3" x="34.28" y="0">K</tspan><tspan x="42.76" y="0">CHAIN</tspan></text><path class="cls-5" d="M21.25,96.81V73.54h8.64c3,0,5.3.45,6.76,1.3a4.23,4.23,0,0,1,2.17,3.93A4.3,4.3,0,0,1,38,81.25a6.83,6.83,0,0,1-2.22,1.94c2.66.57,4,2,4,4.28,0,4-3.18,6.26-9.42,7.41C27.3,95.44,24.26,96.08,21.25,96.81Zm5.92-14.39,1.56-.12a6.86,6.86,0,0,0,3-.72,2,2,0,0,0,.87-1.78,1.79,1.79,0,0,0-.84-1.73,6.31,6.31,0,0,0-3-.39l-1.56.06C27.18,79.3,27.18,80.86,27.17,82.42Zm0,8.85,2.38-.37a7,7,0,0,0,3-1,2.3,2.3,0,0,0,.89-2,1.8,1.8,0,0,0-.87-1.77,5.67,5.67,0,0,0-3-.24l-2.39.27C27.16,87.91,27.15,89.59,27.15,91.27Z"/><path class="cls-5" d="M42.39,93.13q.06-9.8.1-19.59H58.17v4.07q-4.71,0-9.42.09V81q4.23-.12,8.46-.15v4q-4.25,0-8.48.24c0,1.1,0,2.21,0,3.32q4.88-.27,9.77-.33v4.07Q50.43,92.24,42.39,93.13Z"/><path class="cls-5" d="M61.67,92.12q0-9.28,0-18.58H77.34c0,1.42,0,2.83,0,4.24q-4.71-.09-9.42-.14c0,1.07,0,2.15,0,3.22q4.24.08,8.47.22c0,1.39,0,2.78,0,4.17-2.82-.16-5.65-.27-8.48-.35,0,1.1,0,2.19,0,3.28q4.89.16,9.77.54c0,1.42,0,2.84,0,4.25Q69.73,92.16,61.67,92.12Z"/><path class="cls-5" d="M80.93,93.32q0-9.88-.1-19.78h9.6c2.82,0,5,.62,6.63,2a7,7,0,0,1,2.4,5.64,5.72,5.72,0,0,1-1.22,3.78,5.63,5.63,0,0,1-3.45,1.82c1.87,3.17,3.74,6.51,5.59,10.06-2.16-.52-4.34-1-6.52-1.43q-2.17-4.08-4.36-7.84l-2.33-.91,0,7.56Q84.08,93.7,80.93,93.32Zm6.22-10.15,2,.15a5.69,5.69,0,0,0,3.19-.38,2.21,2.21,0,0,0,1-2.08,2.52,2.52,0,0,0-1-2.19,6,6,0,0,0-3.2-.77l-2-.07Z"/><path class="cls-6" d="M19.28,95.26V72h8.64c3,0,5.3.45,6.76,1.3A4.48,4.48,0,0,1,36,79.71a6.83,6.83,0,0,1-2.22,1.94q4,.84,4,4.28c0,4-3.18,6.26-9.42,7.41Q23.81,94.18,19.28,95.26Zm5.93-14.38,1.56-.12a6.84,6.84,0,0,0,3-.72,1.94,1.94,0,0,0,.87-1.78,1.79,1.79,0,0,0-.84-1.73,6.28,6.28,0,0,0-3-.39l-1.56.06C25.21,77.76,25.21,79.32,25.21,80.88Zm0,8.85,2.38-.37a7,7,0,0,0,3-1,2.28,2.28,0,0,0,.88-2,1.77,1.77,0,0,0-.87-1.77,5.56,5.56,0,0,0-3-.24l-2.39.27C25.19,86.37,25.18,88.05,25.18,89.73Z"/><path class="cls-6" d="M40.43,91.58q0-9.78.1-19.58H56.21c0,1.36,0,2.71,0,4.07q-4.71,0-9.42.09v3.27q4.23-.12,8.47-.16c0,1.34,0,2.68,0,4-2.83,0-5.65.12-8.48.24,0,1.11,0,2.22,0,3.33,3.26-.19,6.51-.3,9.78-.33,0,1.36,0,2.71,0,4.07C51.14,90.67,45.77,91,40.43,91.58Z"/><path class="cls-6" d="M59.7,90.58V72H75.38c0,1.41,0,2.83,0,4.24-3.14-.07-6.28-.11-9.42-.14,0,1.07,0,2.14,0,3.22,2.82,0,5.64.12,8.46.22,0,1.39,0,2.78,0,4.17-2.82-.16-5.65-.27-8.47-.35v3.28q4.89.15,9.77.54c0,1.42,0,2.83,0,4.25Q67.76,90.62,59.7,90.58Z"/><path class="cls-6" d="M79,91.78Q78.91,81.9,78.86,72h9.6c2.82,0,5,.62,6.63,2a7,7,0,0,1,2.4,5.64,5.67,5.67,0,0,1-1.22,3.77,5.57,5.57,0,0,1-3.45,1.83c1.88,3.17,3.74,6.51,5.6,10.05-2.17-.52-4.35-1-6.53-1.43C90.45,91.11,89,88.51,87.53,86l-2.33-.91c0,2.52,0,5,0,7.56Q82.11,92.15,79,91.78Zm6.21-10.15,2,.15a5.61,5.61,0,0,0,3.2-.39,2.19,2.19,0,0,0,.94-2.07,2.52,2.52,0,0,0-1-2.19,5.9,5.9,0,0,0-3.2-.77l-2-.07C85.17,78.07,85.17,79.85,85.18,81.63Z"/><path class="cls-5" d="M29.55,104.78a2.17,2.17,0,0,1-1.81-.28,2.83,2.83,0,0,1-1-1.76,2.74,2.74,0,0,1,.14-2,2.19,2.19,0,0,1,1.56-1.06,2.17,2.17,0,0,1,1.86.3,2.82,2.82,0,0,1,1,1.78,2.85,2.85,0,0,1-.2,2A2.15,2.15,0,0,1,29.55,104.78Zm-.12-.55a1.47,1.47,0,0,0,1.07-.77,2.5,2.5,0,0,0,.08-1.59,2.39,2.39,0,0,0-.72-1.42,1.5,1.5,0,0,0-1.33-.25c-1.09.25-1.47,1-1.16,2.39a2.5,2.5,0,0,0,.76,1.4A1.5,1.5,0,0,0,29.43,104.23Z"/><path class="cls-5" d="M32.69,104c-.33-1.67-.66-3.33-1-5l1.78-.34c1.22-.22,1.92.17,2.08,1.16a1.38,1.38,0,0,1-1,1.63c.6.62,1.2,1.24,1.79,1.87l-.74.13L34,101.73l-1.09,0c.14.71.27,1.43.41,2.14Zm.15-2.7.78-.15a2.17,2.17,0,0,0,1.09-.42.85.85,0,0,0,.2-.8,1,1,0,0,0-.24-.54.75.75,0,0,0-.51-.22,2.91,2.91,0,0,0-.89.06l-.8.15C32.59,100.06,32.71,100.7,32.84,101.34Z"/><path class="cls-5" d="M36.63,103.32q.55-2.67,1.2-5.34l.68-.1c.92,1.58,1.83,3.17,2.71,4.76l-.73.1c-.2-.4-.41-.79-.62-1.18l-2.29.34c-.09.44-.17.87-.26,1.31Zm1.07-2,1.89-.28c-.44-.81-.88-1.62-1.33-2.43C38.06,99.51,37.88,100.41,37.7,101.31Z"/><path class="cls-5" d="M45.24,101.37l.06.56a2.53,2.53,0,0,1-.64.3,3,3,0,0,1-.77.17,2.26,2.26,0,0,1-1.84-.48,2.9,2.9,0,0,1-.88-1.89,2.82,2.82,0,0,1,.13-1.41,2.08,2.08,0,0,1,.75-1,2.62,2.62,0,0,1,1.29-.46,2.81,2.81,0,0,1,.71,0,1.86,1.86,0,0,1,.6.17l.06.56a4.74,4.74,0,0,0-.69-.16,2.18,2.18,0,0,0-.57,0,1.79,1.79,0,0,0-1.3.68,2.05,2.05,0,0,0-.3,1.52,2.36,2.36,0,0,0,.66,1.5,1.72,1.72,0,0,0,1.39.39A3.69,3.69,0,0,0,45.24,101.37Z"/><path class="cls-5" d="M46.13,102.09c-.16-1.69-.32-3.38-.47-5.07l.67-.06.4,4.49c.84-.07,1.68-.14,2.52-.19,0,.19,0,.38,0,.57C48.23,101.91,47.18,102,46.13,102.09Z"/><path class="cls-5" d="M50.08,101.78c-.1-1.69-.21-3.38-.32-5.08,1.09-.07,2.19-.12,3.28-.17,0,.19,0,.38,0,.56l-2.59.13c0,.56.07,1.11.1,1.66l2.35-.11c0,.18,0,.37,0,.56l-2.34.11c0,.58.07,1.16.11,1.74q1.29-.08,2.58-.12c0,.18,0,.37,0,.56C52.24,101.66,51.16,101.71,50.08,101.78Z"/><path class="cls-5" d="M59.56,100.71c0,.19,0,.37,0,.56a2.68,2.68,0,0,1-.66.24,3.46,3.46,0,0,1-.78.09,2.31,2.31,0,0,1-1.78-.68,2.89,2.89,0,0,1-.67-2,3,3,0,0,1,.27-1.39,2.17,2.17,0,0,1,.85-.9,2.68,2.68,0,0,1,1.34-.32,3.42,3.42,0,0,1,.7.08,2,2,0,0,1,.58.24c0,.18,0,.37,0,.56a4.56,4.56,0,0,0-.66-.24,2.78,2.78,0,0,0-.57-.07,1.75,1.75,0,0,0-1.35.54,2.06,2.06,0,0,0-.47,1.48,2.33,2.33,0,0,0,.5,1.56,1.68,1.68,0,0,0,1.34.53A3.58,3.58,0,0,0,59.56,100.71Z"/><path class="cls-5" d="M62.44,101.65a2.15,2.15,0,0,1-1.68-.72A3.45,3.45,0,0,1,60.82,97a2.54,2.54,0,0,1,3.48.1,2.79,2.79,0,0,1,.52,2,2.84,2.84,0,0,1-.68,1.92A2.12,2.12,0,0,1,62.44,101.65Zm0-.57a1.43,1.43,0,0,0,1.22-.48,2.43,2.43,0,0,0,.47-1.52,2.4,2.4,0,0,0-.35-1.55A1.51,1.51,0,0,0,62.57,97c-1.11,0-1.68.65-1.7,2a2.42,2.42,0,0,0,.39,1.54A1.41,1.41,0,0,0,62.45,101.08Z"/><path class="cls-5" d="M65.64,101.7l.27-5.08,1.6.09a2.61,2.61,0,0,1,1.89.78,2.54,2.54,0,0,1,.49,2,2.61,2.61,0,0,1-.79,1.84,2.56,2.56,0,0,1-1.92.51Zm1.82-4.44-.9-.05c-.08,1.32-.15,2.65-.23,4l.87,0a1.83,1.83,0,0,0,1.43-.39,2.12,2.12,0,0,0,.58-1.46C69.31,98.06,68.73,97.34,67.46,97.26Z"/><path class="cls-5" d="M70.58,102.05,71,97q1.64.15,3.27.33l-.06.56q-1.29-.15-2.58-.27c0,.55-.1,1.11-.16,1.66q1.17.1,2.34.24l-.06.56c-.78-.09-1.55-.17-2.33-.24,0,.58-.11,1.15-.16,1.73l2.57.27-.06.56C72.73,102.26,71.65,102.15,70.58,102.05Z"/><path class="cls-5" d="M78.44,103.08a2.15,2.15,0,0,1-1.59-.92,2.89,2.89,0,0,1-.33-2,2.81,2.81,0,0,1,.87-1.85,2.56,2.56,0,0,1,3.45.52,2.8,2.8,0,0,1,.28,2,2.88,2.88,0,0,1-.91,1.83A2.18,2.18,0,0,1,78.44,103.08Zm.08-.56a1.47,1.47,0,0,0,1.27-.34,3.09,3.09,0,0,0,.49-3,1.49,1.49,0,0,0-1.15-.7c-1.1-.17-1.74.44-1.93,1.81a2.39,2.39,0,0,0,.2,1.57A1.44,1.44,0,0,0,78.52,102.52Z"/><path class="cls-5" d="M81.63,103.51l.87-5,.64.11c.7,1.48,1.36,3,2,4.47.27-1.31.53-2.63.79-3.94l.67.13q-.51,2.51-1,5l-.61-.13q-.94-2.23-2-4.46c-.24,1.32-.47,2.63-.71,4Z"/><path class="cls-5" d="M86.7,104.49q.52-2.47,1.07-5c1.07.23,2.14.47,3.21.73,0,.18-.08.36-.13.54l-2.54-.58c-.12.54-.23,1.09-.35,1.63.77.17,1.53.34,2.3.53,0,.18-.09.36-.13.54l-2.29-.53c-.13.57-.25,1.14-.38,1.71.85.18,1.69.38,2.54.58,0,.18-.09.36-.13.54C88.81,105,87.76,104.72,86.7,104.49Z"/><path class="cls-6" d="M31.27,127.87l-.19-.48a1.41,1.41,0,0,1-.37.52,1.52,1.52,0,0,1-.57.28,1.24,1.24,0,0,1-1.07-.2,2.15,2.15,0,0,1-.55-2.33,1.26,1.26,0,0,1,.9-.66,1.46,1.46,0,0,1,.55,0,1.58,1.58,0,0,1,.53.18c-.12-.55-.25-1.1-.37-1.66l.56-.12c.32,1.47.63,2.94.95,4.41ZM29,126.78a1.52,1.52,0,0,0,.42.8.76.76,0,0,0,.7.16,1,1,0,0,0,.49-.27,1.05,1.05,0,0,0,.29-.49l-.3-1.36a1.17,1.17,0,0,0-1-.21.77.77,0,0,0-.59.45A1.4,1.4,0,0,0,29,126.78Z"/><path class="cls-6" d="M34.88,127a1.61,1.61,0,0,1-.42.24,4.27,4.27,0,0,1-.6.18,1.55,1.55,0,0,1-1.21-.19,1.76,1.76,0,0,1-.63-1.13,1.7,1.7,0,0,1,.12-1.25,1.46,1.46,0,0,1,1-.62,1.24,1.24,0,0,1,1.61,1.17l.06.34-2.19.43a1.14,1.14,0,0,0,.44.7,1.08,1.08,0,0,0,.78.09,3.27,3.27,0,0,0,.5-.15,3.67,3.67,0,0,0,.47-.26Zm-1.66-2.33a.84.84,0,0,0-.59.36,1,1,0,0,0-.11.72l1.68-.33a1.13,1.13,0,0,0-.32-.66A.79.79,0,0,0,33.22,124.65Z"/><path class="cls-6" d="M36.62,126.82c-.59-.95-1.19-1.91-1.8-2.86l.58-.1,1.35,2.28c.16-.86.33-1.73.51-2.6l.57-.09c-.26,1.1-.51,2.2-.76,3.3Z"/><path class="cls-6" d="M41.16,126a1.43,1.43,0,0,1-.43.22,2.63,2.63,0,0,1-.6.15,1.51,1.51,0,0,1-1.2-.25,1.81,1.81,0,0,1-.58-1.17,1.69,1.69,0,0,1,.19-1.24,1.44,1.44,0,0,1,1-.56c.9-.13,1.42.29,1.54,1.25l0,.34-2.21.32a1.19,1.19,0,0,0,.4.72,1.12,1.12,0,0,0,.78.13,2.72,2.72,0,0,0,.51-.13,2.9,2.9,0,0,0,.47-.23Zm-1.54-2.41a.85.85,0,0,0-.6.33,1.12,1.12,0,0,0-.15.71l1.69-.24a1,1,0,0,0-.29-.67A.77.77,0,0,0,39.62,123.56Z"/><path class="cls-6" d="M42,126c-.18-1.36-.35-2.71-.52-4.06l-.35-.15,0-.22.9-.12.54,4.48Z"/><path class="cls-6" d="M44.8,125.76a1.44,1.44,0,0,1-1.16-.31,1.71,1.71,0,0,1-.54-1.14,1.66,1.66,0,0,1,.27-1.24,1.45,1.45,0,0,1,1.09-.55,1.47,1.47,0,0,1,1.19.31,1.72,1.72,0,0,1,.51,1.16,1.68,1.68,0,0,1-.29,1.23A1.45,1.45,0,0,1,44.8,125.76Zm0-.44a.88.88,0,0,0,.68-.37,1.34,1.34,0,0,0,.16-.91,1.28,1.28,0,0,0-.33-.85.84.84,0,0,0-.75-.23.86.86,0,0,0-.69.38,1.26,1.26,0,0,0-.15.9,1.36,1.36,0,0,0,.34.86A.88.88,0,0,0,44.75,125.32Z"/><path class="cls-6" d="M47.12,126.69c-.13-1.44-.25-2.88-.37-4.32l.38,0c0,.17.09.33.13.5a1.32,1.32,0,0,1,.45-.46,1.29,1.29,0,0,1,.61-.19,1.21,1.21,0,0,1,1,.35,1.81,1.81,0,0,1,.44,1.18,1.84,1.84,0,0,1-.29,1.22,1.21,1.21,0,0,1-1,.5,1.47,1.47,0,0,1-1-.31l.12,1.52Zm1.15-4.07a1,1,0,0,0-.53.19,1.1,1.1,0,0,0-.35.45l.11,1.39a1.15,1.15,0,0,0,.92.35.79.79,0,0,0,.64-.35,1.41,1.41,0,0,0,.17-.9,1.43,1.43,0,0,0-.29-.87A.76.76,0,0,0,48.27,122.62Z"/><path class="cls-6" d="M53,125a1.67,1.67,0,0,1-.44.18,3.88,3.88,0,0,1-.62.08,1.52,1.52,0,0,1-1.17-.36,1.85,1.85,0,0,1-.46-1.22,1.71,1.71,0,0,1,.31-1.21,1.39,1.39,0,0,1,1.07-.46c.91,0,1.38.42,1.41,1.39,0,.11,0,.23,0,.34l-2.22.1a1.15,1.15,0,0,0,.33.76,1,1,0,0,0,.75.2,2.11,2.11,0,0,0,.52-.07,2.82,2.82,0,0,0,.5-.19Zm-1.29-2.55a.81.81,0,0,0-.63.27,1,1,0,0,0-.22.7l1.7-.08a1.06,1.06,0,0,0-.22-.7A.79.79,0,0,0,51.71,122.42Z"/><path class="cls-6" d="M53.86,125.1,53.77,122l.38,0c0,.2.08.39.13.59a1,1,0,0,1,.89-.61.75.75,0,0,1,.22,0c0,.16,0,.32,0,.47h-.14a.9.9,0,0,0-.59.2,1,1,0,0,0-.31.57c0,.63,0,1.26,0,1.89Z"/><path class="cls-6" d="M55.8,125.05c0-.21,0-.42,0-.63h.72c0,.21,0,.42,0,.63Z"/><path class="cls-6" d="M58.55,125.11a1.45,1.45,0,0,1-1.12-.44,1.71,1.71,0,0,1-.4-1.19,1.69,1.69,0,0,1,.4-1.2,1.71,1.71,0,0,1,2.29,0,1.65,1.65,0,0,1,.38,1.21,1.74,1.74,0,0,1-.42,1.19A1.46,1.46,0,0,1,58.55,125.11Zm0-.44a.86.86,0,0,0,.72-.29,1.72,1.72,0,0,0,0-1.77.88.88,0,0,0-.72-.32.9.9,0,0,0-.73.3,1.35,1.35,0,0,0-.25.89,1.38,1.38,0,0,0,.24.88A.85.85,0,0,0,58.55,124.67Z"/><path class="cls-6" d="M60.78,125.09l.09-3.13h.38l.09.59a1,1,0,0,1,.94-.56.66.66,0,0,1,.21,0l0,.47h-.14a.93.93,0,0,0-.6.17,1.06,1.06,0,0,0-.34.55l-.06,1.9Z"/><path class="cls-6" d="M64.91,125.27c0-.17,0-.34-.07-.51a1.19,1.19,0,0,1-1.09.51A1.07,1.07,0,0,1,63,125a1,1,0,0,1-.26-.72.93.93,0,0,1,.38-.75,1.55,1.55,0,0,1,1-.23l.74,0,0-.19a.63.63,0,0,0-.13-.49.77.77,0,0,0-.51-.16,3,3,0,0,0-.51,0,4.68,4.68,0,0,0-.61.14l0-.44a2.62,2.62,0,0,1,.55-.13,2.93,2.93,0,0,1,.58,0c.82,0,1.21.42,1.16,1.12s-.09,1.43-.13,2.14Zm-1.07-.43a.89.89,0,0,0,.53-.13,1.1,1.1,0,0,0,.42-.41c0-.19,0-.39,0-.59l-.69,0a1,1,0,0,0-.63.12.5.5,0,0,0-.22.44.56.56,0,0,0,.13.43A.52.52,0,0,0,63.84,124.84Z"/><path class="cls-6" d="M68.45,124.94l0,.44a2,2,0,0,1-1,.14,1.43,1.43,0,0,1-1.08-.51,1.82,1.82,0,0,1-.29-1.27,1.62,1.62,0,0,1,.49-1.14,1.51,1.51,0,0,1,1.18-.33,1.74,1.74,0,0,1,.83.27l0,.44a1.92,1.92,0,0,0-.75-.26c-.71-.06-1.1.3-1.15,1.06a1.43,1.43,0,0,0,.17.94,1,1,0,0,0,.74.36,1.48,1.48,0,0,0,.42,0A2.4,2.4,0,0,0,68.45,124.94Z"/><path class="cls-6" d="M69.07,125.6l.39-4.07-.31-.23,0-.22.89.09c-.15,1.49-.29,3-.44,4.48Z"/><path class="cls-6" d="M72.94,125.87a1.71,1.71,0,0,1-.47.11,3.4,3.4,0,0,1-.63,0,1.5,1.5,0,0,1-1.09-.55,1.74,1.74,0,0,1-.25-1.27A1.67,1.67,0,0,1,71,123a1.37,1.37,0,0,1,1.12-.28c.91.1,1.3.64,1.17,1.6l0,.34L71,124.39a1.18,1.18,0,0,0,.21.8,1,1,0,0,0,.71.32,1.9,1.9,0,0,0,.53,0,2.64,2.64,0,0,0,.52-.1Zm-.87-2.72a.85.85,0,0,0-.66.16,1,1,0,0,0-.33.65l1.69.2a1,1,0,0,0-.1-.72A.78.78,0,0,0,72.07,123.15Z"/><path class="cls-6" d="M73.69,126.13c0-.21,0-.42.08-.63l.72.1-.09.62Z"/><path class="cls-6" d="M77.44,126.08c0,.15,0,.29-.07.44a2,2,0,0,1-1,.06,1.44,1.44,0,0,1-1-.58,1.87,1.87,0,0,1-.19-1.29,1.62,1.62,0,0,1,.57-1.11,1.57,1.57,0,0,1,1.2-.24,1.82,1.82,0,0,1,.82.34l-.07.43a1.75,1.75,0,0,0-.73-.31c-.71-.11-1.12.21-1.23,1a1.45,1.45,0,0,0,.11.95.92.92,0,0,0,.71.42,2,2,0,0,0,.42,0A2.44,2.44,0,0,0,77.44,126.08Z"/><path class="cls-6" d="M79.29,127.08a1.51,1.51,0,0,1-1-.63,1.7,1.7,0,0,1-.19-1.25,1.64,1.64,0,0,1,.6-1.11,1.52,1.52,0,0,1,1.21-.23,1.5,1.5,0,0,1,1.05.64,1.68,1.68,0,0,1,.17,1.26,1.65,1.65,0,0,1-.62,1.09A1.47,1.47,0,0,1,79.29,127.08Zm.08-.44a.88.88,0,0,0,.77-.17,1.41,1.41,0,0,0,.4-.82,1.36,1.36,0,0,0-.08-.92.88.88,0,0,0-.66-.43.87.87,0,0,0-.77.17,1.38,1.38,0,0,0-.4.83,1.49,1.49,0,0,0,.09.92A.92.92,0,0,0,79.37,126.64Z"/><path class="cls-6" d="M81.51,127.43c.2-1,.41-2.05.61-3.07l.38.08c0,.17,0,.35,0,.53a1.51,1.51,0,0,1,.54-.33,1.26,1.26,0,0,1,.64,0,1,1,0,0,1,.83.8,1.31,1.31,0,0,1,.56-.32,1.26,1.26,0,0,1,.67,0,1.05,1.05,0,0,1,.72.5,1.38,1.38,0,0,1,0,1l-.45,1.88-.54-.13.45-1.87c.12-.53,0-.84-.46-.94a.84.84,0,0,0-.57.05.82.82,0,0,0-.42.38c-.15.69-.3,1.37-.46,2l-.53-.12c.14-.63.27-1.25.41-1.88s-.05-.84-.49-.93a.82.82,0,0,0-.56.06,1,1,0,0,0-.42.42c-.13.68-.27,1.35-.41,2Z"/><path id="Oracle-Signature-URL" class="cls-6" d="M53.57,134h3L55,131.42,52.08,136H50.76l3.53-5.53a.86.86,0,0,1,1.38,0L59.22,136H57.89l-.62-1h-3l-.66-1m13.74,1v-4.81H66.19v5.28a.54.54,0,0,0,.17.39.58.58,0,0,0,.41.17h5.12l.66-1H67.31m-18.57-.86a2,2,0,1,0,0-3.95H43.83V136H45v-4.81h3.71a.95.95,0,0,1,0,1.89H45.51L48.85,136h1.63l-2.25-1.89h.51M36.93,136a2.92,2.92,0,1,1,0-5.84h3.39a2.92,2.92,0,0,1,0,5.84H36.93m3.31-1a1.89,1.89,0,0,0,0-3.78H37A1.89,1.89,0,0,0,37,135h3.24m21.32,1a2.92,2.92,0,0,1,0-5.84h4l-.66,1h-3.3a1.89,1.89,0,0,0,0,3.78h4.05L65,136H61.56m13.73-1a1.9,1.9,0,0,1-1.82-1.37h4.8l.66-1H73.47a1.9,1.9,0,0,1,1.82-1.38h3.3l.66-1h-4a2.92,2.92,0,0,0,0,5.84h3.46l.66-1Zm4.57-4.17a.52.52,0,1,1,.51.51.51.51,0,0,1-.51-.51m.51.65a.66.66,0,1,0-.65-.65.65.65,0,0,0,.65.65m-.07-1a.5.5,0,0,1,.2,0,.2.2,0,0,1,.14.2.15.15,0,0,1,0,.06.16.16,0,0,1-.09.13l0,0,.17.3h-.16l-.15-.28h-.1v.28h-.15v-.73h.18m.06.33s.1,0,.12-.05a.08.08,0,0,0,0-.06.1.1,0,0,0-.06-.09h-.17v.21Z"/><path class="cls-5" d="M58.24,168c-6.82,0-14.59-2.16-19.35-5.37a19.33,19.33,0,0,0-10.83-3.45H26v-.5a7,7,0,0,0-7-7H6.7v-.5a6.2,6.2,0,0,0-6.2-6.19H0V23H.5a6.21,6.21,0,0,0,6.2-6.2v-.5H19a7,7,0,0,0,7-7v-.5h2A19.4,19.4,0,0,0,38.89,5.37C43.65,2.16,51.42,0,58.24,0s14.6,2.16,19.35,5.37A19.43,19.43,0,0,0,88.42,8.82h2v.5a7,7,0,0,0,7,7h12.33v.5A6.21,6.21,0,0,0,116,23h.5V144.94H116a6.2,6.2,0,0,0-6.2,6.19v.5H97.46a7,7,0,0,0-7,7v.5h-2a19.35,19.35,0,0,0-10.83,3.45C72.84,165.81,65.06,168,58.24,168ZM27,158.15h1a20.32,20.32,0,0,1,11.39,3.62c4.61,3.11,12.16,5.2,18.79,5.2s14.19-2.09,18.79-5.2a20.37,20.37,0,0,1,11.39-3.62h1a8,8,0,0,1,8-7.52h11.35a7.2,7.2,0,0,1,6.68-6.68V24a7.19,7.19,0,0,1-6.68-6.68H97.46a8,8,0,0,1-8-7.51h-1A20.45,20.45,0,0,1,77,6.2C72.43,3.09,64.88,1,58.24,1S44.06,3.09,39.45,6.2A20.4,20.4,0,0,1,28.06,9.82H27a8,8,0,0,1-8,7.51H7.68A7.21,7.21,0,0,1,1,24V144a7.22,7.22,0,0,1,6.68,6.68H19A8,8,0,0,1,27,158.15Z"/><path class="cls-5" d="M58.24,4.46c5.91,0,12.84,1.89,16.86,4.6a24,24,0,0,0,11.56,4.15,11.55,11.55,0,0,0,10.8,7.58h8.63A10.83,10.83,0,0,0,112,26.73V141.24a10.85,10.85,0,0,0-5.93,5.93H97.46a11.54,11.54,0,0,0-10.8,7.59A24.1,24.1,0,0,0,75.1,158.9c-4,2.71-10.95,4.61-16.86,4.61s-12.84-1.9-16.85-4.61a24.13,24.13,0,0,0-11.56-4.14A11.54,11.54,0,0,0,19,147.17H10.39a10.78,10.78,0,0,0-5.93-5.93V26.73a10.77,10.77,0,0,0,5.93-5.94H19a11.55,11.55,0,0,0,10.8-7.58A24.13,24.13,0,0,0,41.39,9.07c4-2.72,10.94-4.61,16.85-4.61Zm0-2c-6.27,0-13.66,2-18,5a21.9,21.9,0,0,1-12,3.87A9.48,9.48,0,0,1,19,18.79H8.93a8.69,8.69,0,0,1-6.47,6.48V142.7a8.67,8.67,0,0,1,6.47,6.47H19a9.49,9.49,0,0,1,9.27,7.52,21.9,21.9,0,0,1,12,3.87c4.31,2.91,11.7,4.95,18,4.95s13.66-2,18-4.95a21.87,21.87,0,0,1,12-3.87,9.5,9.5,0,0,1,9.28-7.52h10.09A8.69,8.69,0,0,1,114,142.7V25.27a8.7,8.7,0,0,1-6.47-6.48H97.46a9.49,9.49,0,0,1-9.28-7.51,21.87,21.87,0,0,1-12-3.87c-4.32-2.92-11.71-4.95-18-4.95Z"/><path class="cls-5" d="M113.48,112.68H3V54.09H113.48ZM4,111.68H112.48V55.09H4Z"/><rect class="cls-5" x="3.5" y="50.52" width="109.48" height="2"/><rect class="cls-5" x="3.5" y="114.41" width="109.48" height="2"/><path class="cls-5" d="M58.24,108.57a1.36,1.36,0,1,1,1.36-1.36A1.35,1.35,0,0,1,58.24,108.57Zm24-1.36c0-.33-19.26-.59-19.94-.59s-1.25.26-1.25.59.56.6,1.25.6S82.26,107.54,82.26,107.21Zm-28.09.6c.69,0,1.24-.27,1.24-.6s-.55-.59-1.24-.59-20,.26-20,.59S53.48,107.81,54.17,107.81Z"/><path class="cls-5" d="M86.76,29.11c-.18-.39-.45-.45-.63-.68.23-.09.8-.36.48-.85-.21.66-.75.32-1.14.07-1-.76-2.3.2-2.56,1.28a5.86,5.86,0,0,0,.55,3.32,6.29,6.29,0,0,1,.72,3.81,1.7,1.7,0,0,1-1.44,1.32c-.19-.86-.71-1.24-1.35-2-.78-.93.39-5.22.13-5.64-.63-1-.43-1.48-.43-1.48a2,2,0,0,0,1,.32c-1.62-1.17.42-2.17.42-2.17s-.81-.22-.81-.62c0-.67.89-.63.89-.63a1,1,0,0,1-.84-.87,1.07,1.07,0,0,0,1.07.16c-.52,0-.88-.9-.8-.95.31.16.64.3,1,0-.59,0-.73-.92-1.26-1.4A5.39,5.39,0,0,0,78.92,21c-.54,0-1.54.78-1.7.75s-2.08.12-2.08.12c-.15.16-.09.41-.09.83s.27-.32.94.36c-.2.19-1.82.18-2-.58a1,1,0,0,1,.39-1c-.47-.2-1,.15-1,.81,0,.86,1.16,1.3,2.24,1.3.56,0,.56.2.56.2l-1-.08s-.12,1.27,0,1.18c.17-.56.84-.47,1.18-.32.78.33.93,1.78-1.06,1.78a1.33,1.33,0,0,1-1.09-.4c-.06.25.31.74-.33.74-1.54,0-1.71-3.19-2.21-3.55s-.72-.63-1.34-.63c.47.48.45.69.25.9a1.7,1.7,0,0,0-1.17-.25s.81.74.65,1.21a1,1,0,0,0-1-.27c.72.56.55,1.4,1.64,1.45.85,0,.36.9.48,1.2.36-.08.43.13.44.39s-.06.75,0,.93c.38-.34.58-.27.64-.2.22.23-.15.58-.15.93.49-.47.71.76.93.47.64-.81,3-.11,2.12.89a4,4,0,0,1-4.34.48c-.44-.35-.88-1-1.37-1.17a1.34,1.34,0,0,0-1.13.23c.79.11,1,.32,1,.7s-.78,0-1.41.17c.54.37.06.65.88.76s-.43.63-1,.78c.41.21.76.56,1.2.3,1-.54,1.66-.62,2.27.56.05-.52.31-.55.5-.55.47,0,.28.64.82.64,0,0-.08-.47.29-.47s.51.66,1.17.66c-.06-.47,0-.62.24-.62.48,0,.66.62.66.62.67,0,.2-.77,1-.58s1.22,1.52,1.22,1.52.62,1.21-1.59.57c-1.15-.34-1.42-.59-2.32-.4s-.78,1.58-.78,1.58,1.13,1.79.62,2.77c-.36.69-.78,1-2.12,1s-1.1-.71-1.1-.71c-.31-.08-.77-.42-1.26-.09.52.16.8.75.64.81-.64-.32-.75,0-1.34.05.33.08.39.45.62.54a1.94,1.94,0,0,0,.78.18s0,.2-.49.28,0,.34-.26.74c.64-.12.68.13,1.23-.48a2.85,2.85,0,0,0,.84,0s.74-.09.2.46c1.44-.66,1,.11,1,.11.63,0,1-.4,1-.66.18,0,.65,0,.35.49a1,1,0,0,0,.72-.54c.12-.37.47-.51.85.11.22,0,.11-1,.22-1.14.31-.43.87-.08.87-.08a1.43,1.43,0,0,0-.35-.77c-.34-.39-.12-1.29.27-1.37a10.59,10.59,0,0,1,2.12.29s-.58,1.89.43,2.91c.58.58,1.47.56,1.62,1,.58,1.55-1.19,1.82-1.8,1.8a2.16,2.16,0,0,1-1.49-.46c-.69-.06-.89-.21-1.48.14.61.14.52.16.75.42-.58.07-.49.24-.83.68.79-.13,1,.08,1,.08-.48.19-.36.9-.36.9.5-.41.6-.26,1-.31.67-.1.81-.38.81-.38l1.33.21c.44,0,.38-.3.65-.3s.83.12.57.38c.69-.17.49-.63.73-.85.53-.51.58.37.58.37.33-.34.15-.94.15-1.26s.41-.34.55.06c.25,0,.31-.55.16-.7s-.29-.79-.08-.79c.5,0,.53-.61.53-.61-.11.17-.53.16-.64-.29s.86-1.56.8-2.82a.91.91,0,0,0,0-.17,3,3,0,0,0,1-.36,2.64,2.64,0,0,0,1-2.53c-.16-2-1.4-3.58-1.52-5.55a1.85,1.85,0,0,1,.91-1.6.83.83,0,0,1,.93,0c.35.31-.3.79-.06,1.3,0-.17.3-.33.43-.44a6.48,6.48,0,0,1,.14.9c.11.51,1,1,1.36,1.1C86.5,29.91,86.94,29.49,86.76,29.11Z"/><path class="cls-5" d="M30.09,29.11c.18-.39.45-.45.63-.68-.23-.09-.79-.36-.47-.85.21.66.75.32,1.14.07,1-.76,2.29.2,2.55,1.28a5.78,5.78,0,0,1-.55,3.32,6.36,6.36,0,0,0-.72,3.81,1.71,1.71,0,0,0,1.44,1.32c.2-.86.71-1.24,1.35-2,.79-.93-.39-5.22-.13-5.64.63-1,.43-1.48.43-1.48a2,2,0,0,1-1,.32c1.63-1.17-.42-2.17-.42-2.17s.81-.22.81-.62c0-.67-.88-.63-.88-.63a1,1,0,0,0,.83-.87,1.07,1.07,0,0,1-1.07.16c.52,0,.89-.9.8-.95-.3.16-.64.3-1,0,.58,0,.72-.92,1.25-1.4A5.43,5.43,0,0,1,37.93,21c.54,0,1.54.78,1.7.75s2.08.12,2.08.12c.15.16.09.41.09.83s-.26-.32-.94.36c.2.19,1.82.18,2-.58a1,1,0,0,0-.39-1,.76.76,0,0,1,1,.81c0,.86-1.16,1.3-2.25,1.3-.56,0-.56.2-.56.2l1-.08s.12,1.27,0,1.18c-.17-.56-.84-.47-1.18-.32-.78.33-.93,1.78,1.06,1.78a1.31,1.31,0,0,0,1.09-.4c.06.25-.31.74.33.74,1.55,0,1.72-3.19,2.22-3.55s.71-.63,1.34-.63c-.48.48-.46.69-.26.9a1.7,1.7,0,0,1,1.17-.25s-.81.74-.65,1.21a1,1,0,0,1,1-.27c-.71.56-.55,1.4-1.63,1.45-.85,0-.36.9-.49,1.2-.36-.08-.43.13-.44.39s.06.75,0,.93c-.38-.34-.58-.27-.64-.2-.21.23.15.58.15.93-.49-.47-.7.76-.93.47-.64-.81-3-.11-2.11.89a4,4,0,0,0,4.34.48c.44-.35.87-1,1.36-1.17a1.32,1.32,0,0,1,1.13.23c-.79.11-1,.32-1,.7s.79,0,1.41.17c-.53.37-.06.65-.87.76s.42.63,1,.78c-.41.21-.75.56-1.2.3-.95-.54-1.66-.62-2.27.56,0-.52-.3-.55-.5-.55-.46,0-.27.64-.81.64,0,0,.07-.47-.29-.47s-.52.66-1.17.66c.05-.47,0-.62-.25-.62-.47,0-.65.62-.65.62-.68,0-.2-.77-1.06-.58s-1.21,1.52-1.21,1.52-.62,1.21,1.58.57c1.15-.34,1.43-.59,2.32-.4s.79,1.58.79,1.58-1.14,1.79-.63,2.77c.36.69.79,1,2.12,1S47,38.94,47,38.94c.3-.08.77-.42,1.25-.09-.52.16-.79.75-.64.81.65-.32.75,0,1.34.05-.33.08-.38.45-.61.54a2,2,0,0,1-.79.18s0,.2.5.28,0,.34.25.74c-.64-.12-.67.13-1.23-.48a2.78,2.78,0,0,1-.83,0s-.75-.09-.21.46c-1.44-.66-1,.11-1,.11-.63,0-1-.4-1-.66-.17,0-.64,0-.34.49a1,1,0,0,1-.73-.54c-.12-.37-.46-.51-.85.11-.22,0-.1-1-.22-1.14-.3-.43-.87-.08-.87-.08a1.4,1.4,0,0,1,.36-.77c.33-.39.12-1.29-.27-1.37a10.71,10.71,0,0,0-2.13.29s.59,1.89-.42,2.91c-.59.58-1.48.56-1.63,1-.58,1.55,1.19,1.82,1.8,1.8a2.13,2.13,0,0,0,1.49-.46c.69-.06.89-.21,1.48.14-.61.14-.51.16-.75.42.58.07.49.24.84.68-.8-.13-1,.08-1,.08.47.19.36.9.36.9-.51-.41-.61-.26-1-.31-.67-.1-.81-.38-.81-.38L38,44.83c-.45,0-.38-.3-.65-.3s-.84.12-.58.38c-.69-.17-.49-.63-.72-.85-.53-.51-.58.37-.58.37-.34-.34-.16-.94-.16-1.26s-.41-.34-.54.06c-.25,0-.32-.55-.17-.7s.29-.79.08-.79c-.5,0-.53-.61-.53-.61.11.17.53.16.64-.29S34,39.28,34,38c0-.06,0-.12,0-.17a3.13,3.13,0,0,1-1-.36A2.64,2.64,0,0,1,32,35c.16-2,1.41-3.58,1.53-5.55a1.85,1.85,0,0,0-.91-1.6.84.84,0,0,0-.94,0c-.34.31.3.79.06,1.3,0-.17-.3-.33-.43-.44-.07.13,0,.28-.14.9s-1,1-1.35,1.1C30.36,29.91,29.92,29.49,30.09,29.11Z"/><path class="cls-5" d="M62.07,36.93c-.09,1.38-.2,2.77-.35,4.15a18.21,18.21,0,0,0,2.85-.56c.17-1.15.32-2.36.42-3.62a47.69,47.69,0,0,0,.22-5,16.57,16.57,0,0,1-3,.65C62.21,34.08,62.15,35.55,62.07,36.93Z"/><path class="cls-5" d="M52.37,40.53a20.4,20.4,0,0,0,2.84.56c-.14-1.39-.25-2.79-.34-4.17s-.15-2.84-.17-4.33a17.94,17.94,0,0,1-3-.65c0,1.56.07,3.23.22,5C52.05,38.16,52.2,39.37,52.37,40.53Z"/><path class="cls-5" d="M58.16,41.27V32.85c-.92,0-1.86-.07-2.77-.16,0,1.34.07,2.74.16,4.19s.22,2.91.35,4.28C56.63,41.22,57.38,41.26,58.16,41.27Z"/><path class="cls-5" d="M61,41.16c.15-1.38.27-2.8.37-4.28s.14-2.85.16-4.2c-.91.1-1.84.15-2.7.17v8.42C59.6,41.26,60.32,41.22,61,41.16Z"/><path class="cls-5" d="M61.63,41.81c-.14,1.28-.32,2.53-.52,3.73A14,14,0,0,0,63.67,45c.29-1.11.56-2.33.77-3.65A20.3,20.3,0,0,1,61.63,41.81Z"/><path class="cls-5" d="M64.46,44.65A4.34,4.34,0,0,0,66.54,43a3.47,3.47,0,0,0,.3-1.09v0c.08-.53.15-1,.23-1.58a9.31,9.31,0,0,1-1.91.82C65,42.33,64.74,43.53,64.46,44.65Z"/><path class="cls-5" d="M58.85,42v3.7c.53,0,1.06,0,1.57-.09.2-1.16.38-2.41.53-3.72C60.23,42,59.52,42,58.85,42Z"/><path class="cls-5" d="M49.79,40.27,50,41.86v0s.1.62.11.62a3.83,3.83,0,0,0,2.35,2.17c-.29-1.12-.53-2.34-.72-3.58A10.72,10.72,0,0,1,49.79,40.27Z"/><path class="cls-5" d="M52.5,41.31A36.27,36.27,0,0,0,53.27,45a13,13,0,0,0,2.55.55c-.2-1.19-.37-2.44-.53-3.71A19.47,19.47,0,0,1,52.5,41.31Z"/><path class="cls-5" d="M65.68,37c-.1,1.11-.23,2.23-.39,3.33a6.72,6.72,0,0,0,1.9-.95,76.58,76.58,0,0,0,.72-8.79,6.77,6.77,0,0,1-2,1.16C65.91,33.49,65.82,35.31,65.68,37Z"/><path class="cls-5" d="M56,41.89c.15,1.31.32,2.56.51,3.72a14.93,14.93,0,0,0,1.65.09V42C57.44,42,56.71,42,56,41.89Z"/><path class="cls-5" d="M51.25,37c-.13-1.57-.21-3.29-.21-5V31.7a6.45,6.45,0,0,1-2.11-1.22,72.85,72.85,0,0,0,.74,8.83,6.8,6.8,0,0,0,2,1C51.49,39.2,51.36,38.07,51.25,37Z"/><path class="cls-5" d="M61.44,26.7a23.82,23.82,0,0,1-2.59.19v5.23A26.12,26.12,0,0,0,61.57,32C61.59,30.05,61.55,28.29,61.44,26.7Z"/><path class="cls-5" d="M64.71,25.87c.05,0-1.76.56-2.6.72.12,1.68.15,3.48.14,5.27a16.78,16.78,0,0,0,3-.69A30.7,30.7,0,0,0,64.71,25.87Z"/><path class="cls-5" d="M54.7,31.87c0-.24,0-.49,0-.72,0-1.56,0-3.1.14-4.56a10.76,10.76,0,0,1-2.6-.71,31.75,31.75,0,0,0-.5,5.31A17.43,17.43,0,0,0,54.7,31.87Z"/><path class="cls-5" d="M58.16,32.12V26.89c-1,0-2.7-.19-2.67-.19-.11,1.59-.15,3.36-.13,5.25A27.15,27.15,0,0,0,58.16,32.12Z"/><path class="cls-5" d="M51.59,25.58S50,24.78,50,23.75c0-1.74,3.79-3.14,8.44-3.14s8.44,1.41,8.44,3.15c0,.67-.57,1.28-1.52,1.79a29.47,29.47,0,0,1,.53,5.36,4.35,4.35,0,0,0,1.92-1.33,1.22,1.22,0,0,0,.12-.19,44.52,44.52,0,0,0-.36-5.53h0a.31.31,0,0,0,0-.1,2,2,0,0,0-.11-.64A2.69,2.69,0,0,0,66.73,22c-1.54-1.4-4.93-2.12-8.29-2.13-.51,0-1,0-1.54.06h-.06a15.7,15.7,0,0,0-5.25,1.16h0a3.85,3.85,0,0,0-2.13,1.94s0,0,0,0v0a1.81,1.81,0,0,0-.1.61.28.28,0,0,0,0,.09h0a39.81,39.81,0,0,0-.39,5.44,3.78,3.78,0,0,0,2.12,1.66A28.45,28.45,0,0,1,51.59,25.58Z"/><path class="cls-5" d="M66.18,23.76c0-1-3-2.47-7.75-2.47s-7.75,1.45-7.75,2.46,3,2.46,7.75,2.47S66.18,24.76,66.18,23.76Zm-4.07,1c0,.26-.38.47-.86.47s-.85-.21-.85-.47.38-.47.85-.47S62.11,24.48,62.11,24.74Z"/><path class="cls-5" d="M42.5,13.34l.66.66.63.68s.4-.2.82-.36.83-.33.83-.33-.25.37-.47.77l-.43.77.59.7.58.72-.82-.25-.82-.2a7.64,7.64,0,0,0-.33.78l-.28.78-.23-.88c-.11-.45-.21-.89-.21-.89s-.44-.08-.88-.13l-.9-.07s.38-.25.76-.48l.79-.44s-.08-.46-.15-.92Z"/><path class="cls-5" d="M50.51,10.78l.86,1.64.88-.14.88-.11-.64.63c-.31.31-.61.64-.61.64l.39.83.39.83-.75-.43-.76-.42s-.29.32-.56.67l-.54.67.13-1.83-.8-.39c-.41-.19-.82-.35-.82-.35s.43-.13.86-.21l.87-.19.1-.92Z"/><path class="cls-5" d="M58.7,10.09l.53,1.77.89,0,.88,0-.74.5c-.36.25-.72.53-.72.53L60,14.73l-1.33-1.12s-.35.26-.68.55l-.67.56.49-1.78-.71-.53-.74-.52.89,0h.89Z"/><path class="cls-5" d="M66.88,10.9l.1.93.08.92.87.2.86.23-.83.34-.81.37.06.91,0,.92L66.72,15l-.54-.68-.77.41-.76.42.81-1.64-.6-.66-.63-.64.88.13.88.15Z"/><path class="cls-5" d="M74.85,13.65l-.16.91-.18.92.77.46.75.52-.91,0c-.44,0-.88.1-.88.1l-.24.88c-.14.43-.27.87-.27.87l-.25-.79a8.08,8.08,0,0,0-.29-.79l-.83.19c-.41.09-.82.22-.82.22l.6-.7c.3-.35.61-.69.61-.69L72.34,15c-.22-.4-.45-.79-.45-.79l.82.36c.42.17.81.38.81.38l.66-.65Z"/><path class="cls-5" d="M3.5,51.87a.52.52,0,0,1-.35-.14.5.5,0,0,1,0-.71L23.24,30.93a.5.5,0,0,1,.71,0,.5.5,0,0,1,0,.7L3.85,51.73A.5.5,0,0,1,3.5,51.87Z"/><path class="cls-5" d="M3.5,51.87a.51.51,0,0,1-.45-.27.5.5,0,0,1,.22-.67L20,42.47a.5.5,0,0,1,.45.89L3.73,51.82A.48.48,0,0,1,3.5,51.87Z"/><path class="cls-5" d="M3.5,51.87A.5.5,0,0,1,3,51.48a.51.51,0,0,1,.39-.6L26.49,46.1a.5.5,0,0,1,.59.39.49.49,0,0,1-.38.59L3.6,51.86Z"/><path class="cls-5" d="M3.53,51.75a.59.59,0,0,1-.22,0A.5.5,0,0,1,3.09,51l8.46-16.67a.5.5,0,0,1,.67-.22.51.51,0,0,1,.22.67L4,51.48A.51.51,0,0,1,3.53,51.75Z"/><path class="cls-5" d="M3.53,51.75h-.1A.51.51,0,0,1,3,51.15L7.76,28.52a.5.5,0,0,1,.59-.39.51.51,0,0,1,.39.59L4,51.35A.49.49,0,0,1,3.53,51.75Z"/><path class="cls-5" d="M113,51.87a.54.54,0,0,1-.35-.14L92.54,31.63a.49.49,0,0,1,.7-.7L113.34,51a.51.51,0,0,1,0,.71A.54.54,0,0,1,113,51.87Z"/><path class="cls-5" d="M113,51.87a.44.44,0,0,1-.22,0L96.08,43.36a.5.5,0,0,1-.21-.67.49.49,0,0,1,.67-.22l16.67,8.46a.49.49,0,0,1,.22.67A.5.5,0,0,1,113,51.87Z"/><path class="cls-5" d="M113,51.87h-.11L89.79,47.08a.5.5,0,0,1-.39-.59A.51.51,0,0,1,90,46.1l23.1,4.78a.5.5,0,0,1,.38.6A.49.49,0,0,1,113,51.87Z"/><path class="cls-5" d="M113,51.75a.49.49,0,0,1-.44-.27L104.05,34.8a.49.49,0,0,1,.22-.67.51.51,0,0,1,.67.22L113.4,51a.52.52,0,0,1-.22.68A.59.59,0,0,1,113,51.75Z"/><path class="cls-5" d="M113,51.75a.5.5,0,0,1-.49-.4l-4.71-22.63a.5.5,0,1,1,1-.2l4.71,22.63a.5.5,0,0,1-.39.59Z"/><path class="cls-5" d="M23.6,136.18a.51.51,0,0,1-.36-.15L3.15,115.94a.5.5,0,0,1,0-.71.5.5,0,0,1,.7,0L24,135.32a.51.51,0,0,1,0,.71A.5.5,0,0,1,23.6,136.18Z"/><path class="cls-5" d="M20.17,124.54a.44.44,0,0,1-.22-.05L3.27,116a.51.51,0,0,1-.22-.67.5.5,0,0,1,.68-.22L20.4,123.6a.49.49,0,0,1,.22.67A.5.5,0,0,1,20.17,124.54Z"/><path class="cls-5" d="M26.6,120.87h-.11L3.4,116.07a.5.5,0,0,1-.39-.59.51.51,0,0,1,.59-.39l23.1,4.79a.5.5,0,0,1-.1,1Z"/><path class="cls-5" d="M12,132.88a.49.49,0,0,1-.44-.27L3.09,115.93a.49.49,0,0,1,.22-.67.5.5,0,0,1,.67.22l8.46,16.67a.52.52,0,0,1-.22.68A.59.59,0,0,1,12,132.88Z"/><path class="cls-5" d="M8.25,138.84a.51.51,0,0,1-.49-.4L3,115.81a.5.5,0,0,1,.39-.59.49.49,0,0,1,.59.38l4.72,22.63a.51.51,0,0,1-.39.6Z"/><path class="cls-5" d="M92.89,136.18a.47.47,0,0,1-.35-.15.5.5,0,0,1,0-.71l20.09-20.09a.5.5,0,0,1,.71.71L93.24,136A.47.47,0,0,1,92.89,136.18Z"/><path class="cls-5" d="M96.31,124.54a.49.49,0,0,1-.44-.27.49.49,0,0,1,.21-.67l16.68-8.46a.5.5,0,1,1,.45.89l-16.67,8.46A.48.48,0,0,1,96.31,124.54Z"/><path class="cls-5" d="M89.89,120.87a.51.51,0,0,1-.49-.4.49.49,0,0,1,.39-.59l23.09-4.79a.5.5,0,0,1,.59.39.49.49,0,0,1-.38.59L90,120.86Z"/><path class="cls-5" d="M104.49,132.88a.59.59,0,0,1-.22,0,.5.5,0,0,1-.22-.68l8.46-16.67a.5.5,0,0,1,.67-.22.51.51,0,0,1,.22.67l-8.46,16.68A.51.51,0,0,1,104.49,132.88Z"/><path class="cls-5" d="M108.24,138.84h-.1a.5.5,0,0,1-.39-.6l4.71-22.63a.5.5,0,0,1,1,.21l-4.71,22.63A.51.51,0,0,1,108.24,138.84Z"/><path class="cls-5" d="M86.32,144.23A.78.78,0,0,1,87,145a1.83,1.83,0,0,1-.89,1.41,54.35,54.35,0,0,1-5.73,3.15,3,3,0,0,1-2.54.07c1.12-.47,2.24-1,3.34-1.54a2,2,0,0,0,1.14-2.67c-.67-1.21-1.35-2.42-2-3.63.71-.39,1.41-.81,2.1-1.25a1.65,1.65,0,0,1,1.53-.14.87.87,0,0,1,.48.82c0,.59-.07,1.17-.11,1.76a.82.82,0,0,0,.62.89C85.36,144,85.83,144.12,86.32,144.23Z"/><path class="cls-5" d="M30,144.23a.77.77,0,0,0-.65.77,1.78,1.78,0,0,0,.89,1.41,53.38,53.38,0,0,0,5.73,3.15,3,3,0,0,0,2.54.07c-1.13-.47-2.25-1-3.35-1.54A2,2,0,0,1,34,145.42l2-3.63c-.71-.39-1.41-.81-2.1-1.25a1.63,1.63,0,0,0-1.52-.14.84.84,0,0,0-.48.82c0,.59.06,1.17.11,1.76a.83.83,0,0,1-.63.89C30.91,144,30.43,144.12,30,144.23Z"/><path class="cls-5" d="M42.55,146.22,42,146l-.34,1,.59.21c.38.14.66.05.78-.29S42.94,146.35,42.55,146.22Z"/><polygon class="cls-5" points="68.03 149.28 69.01 149.08 68.29 148.02 68.03 149.28"/><path class="cls-5" d="M39.85,145.17l-.54-.23-.41,1,.54.23c.38.16.66.09.8-.25S40.23,145.33,39.85,145.17Z"/><path class="cls-5" d="M62.91,149.67a.92.92,0,0,0-1-.87.94.94,0,0,0-.89,1,1,1,0,0,0,1,.87A.93.93,0,0,0,62.91,149.67Z"/><path class="cls-5" d="M81.78,145.7l-2-3.73a1.43,1.43,0,0,0-1.92-.51,43.84,43.84,0,0,1-39.39,0,1.45,1.45,0,0,0-1.93.51l-2,3.73a1.49,1.49,0,0,0,.84,2,50.77,50.77,0,0,0,45.63,0A1.49,1.49,0,0,0,81.78,145.7Zm-41.14.35a.92.92,0,0,1-1.34.46l-.56-.23-.31.73-.41-.17,1-2.44,1,.41C40.64,145.07,40.86,145.52,40.64,146.05Zm2.75,1a.84.84,0,0,1-.8.63l.27,1-.48-.17-.19-.91-.12,0-.59-.21-.26.75L40.8,148l.88-2.5,1,.36C43.33,146.06,43.58,146.5,43.39,147Zm2.88.32-1.39-.4-.19.69,1.24.36-.11.38L44.58,148l-.2.7,1.43.41-.11.38L43.84,149l.72-2.54,1.82.52Zm3.14,3-.4-.09.4-1.93-1.16,1.49-.29-.06-.46-1.83-.41,1.93-.41-.09.55-2.58.51.11.49,1.9,1.22-1.54.51.11Zm1.6.25-.44-.07.4-2.61.44.06Zm3.48-.68a1.15,1.15,0,0,1-2.29-.25l.17-1.54.44,0-.17,1.55a.66.66,0,0,0,.64.78.65.65,0,0,0,.77-.63l.16-1.54.45,0Zm3.81,1.27-.41,0,.07-2-.9,1.67h-.29L56,149.14l-.07,2h-.42l.09-2.64h.53l.81,1.79.93-1.73.52,0Zm4.64.38a1,1,0,0,1-.88-.51,1.34,1.34,0,1,1-.18-2.67,1.34,1.34,0,0,1,1.49,1.23,1.32,1.32,0,0,1-.86,1.34.6.6,0,0,0,.45.22,1,1,0,0,0,.48-.25l.2.3A1.22,1.22,0,0,1,62.94,151.58Zm2.6-.87a1.05,1.05,0,0,1-1.3-1L64,148.23l.44-.06.21,1.53a.67.67,0,0,0,.81.61.65.65,0,0,0,.59-.8L65.87,148l.44-.06.21,1.54A1,1,0,0,1,65.54,150.71Zm4.08-.74-.36-.54L68,149.7l-.13.63-.46.09L68,147.6l.45-.09,1.66,2.36Zm1.25-.3-.68-2.57.44-.11.57,2.17,1.11-.29.1.39Zm2.38-.67-.77-2.53.42-.13.78,2.53Zm2.4-.78-.42.14-.74-2.11-.79.28-.13-.38,2-.71.13.38-.79.28Zm2.19-.84-.34-.8-1.59-1.27.41-.17,1.19.9.19-1.48.42-.17-.22,2,.34.81Z"/></g></g></svg>